<svg fill="none" height="16" viewBox="0 0 16 16" width="16" xmlns="http://www.w3.org/2000/svg"><path d="m8.21355 2.04328c-.0974-.16001-.3297-.16001-.4271 0l-5.56403 9.14092c-.07755.1274-.02701.2939.10827.3567l5.56403 2.5833c.06676.031.14379.031.21056 0l5.56402-2.5833c.1353-.0628.1858-.2293.1083-.3567zm-1.7084-.77992c.68181-1.120118 2.30788-1.120121 2.9897 0l5.56405 9.14094c.5428.8918.189 2.0575-.7579 2.4971l-5.56406 2.5833c-.46734.217-1.00655.217-1.47389 0l-5.56402-2.5833c-.94696-.4396-1.300756-1.6053-.757908-2.4971z" fill="#000"/></svg>